<?xml version="1.0" encoding="iso-8859-1"?>
<!-- Generator: Adobe Illustrator 19.0.0, SVG Export Plug-In . SVG Version: 6.00 Build 0)  -->
<svg version="1.1" id="Layer_1" xmlns="http://www.w3.org/2000/svg" xmlns:xlink="http://www.w3.org/1999/xlink" x="0px" y="0px"
	 viewBox="0 0 383.748 383.748" style="enable-background:new 0 0 383.748 383.748;" xml:space="preserve">
<g>
	<path d="M354.86,88.952c-11.975-18.584-27.145-34.707-44.706-47.731l38.952-39.139H235.742v113.91l52.964-53.219
		c40.142,28.131,65.042,74.724,65.042,124.571c0,83.744-68.13,151.874-151.874,151.874v30c100.286,0,181.874-81.588,181.874-181.874
		C383.748,152.305,373.759,118.282,354.86,88.952z"/>
	<path d="M0,196.405c0,35.038,9.989,69.061,28.888,98.391c11.975,18.584,27.145,34.707,44.706,47.731l-38.952,39.139h113.365
		v-113.91l-52.964,53.219C54.9,292.844,30,246.252,30,196.405c0-83.744,68.13-151.874,151.874-151.874v-30
		C81.588,14.531,0,96.12,0,196.405z"/>
</g>
<g>
</g>
<g>
</g>
<g>
</g>
<g>
</g>
<g>
</g>
<g>
</g>
<g>
</g>
<g>
</g>
<g>
</g>
<g>
</g>
<g>
</g>
<g>
</g>
<g>
</g>
<g>
</g>
<g>
</g>
</svg>
