<svg role="img" viewBox="0 0 24 24" xmlns="http://www.w3.org/2000/svg" id="Flathub--Streamline-Simple-Icons" height="24" width="24">
  <desc>
    Flathub Streamline Icon: https://streamlinehq.com
  </desc>
  <title>Flathub</title>
  <path d="M6.068 0a6 6 0 0 0 -6 6 6 6 0 0 0 6 6 6 6 0 0 0 5.998 -6 6 6 0 0 0 -5.998 -6Zm9.15 0.08a1.656 1.656 0 0 0 -1.654 1.656v8.15a1.656 1.656 0 0 0 2.483 1.434l7.058 -4.074a1.656 1.656 0 0 0 0 -2.869l-1.044 -0.604 -6.014 -3.47a1.656 1.656 0 0 0 -0.828 -0.223Zm3.575 13.135a0.815 0.815 0 0 0 -0.816 0.818v2.453h-2.454a0.817 0.817 0 1 0 0 1.635h2.454v2.453a0.817 0.817 0 1 0 1.635 0v-2.453h2.452a0.817 0.817 0 1 0 0 -1.635h-2.453v-2.453a0.817 0.817 0 0 0 -0.818 -0.818zM2.865 13.5a2.794 2.794 0 0 0 -2.799 2.8v4.9c0 1.55 1.248 2.8 2.8 2.8h4.9c1.55 0 2.8 -1.25 2.8 -2.8v-4.9c0 -1.55 -1.25 -2.8 -2.8 -2.8Z" fill="#000000" stroke-width="1"></path>
</svg>