<?xml version="1.0" encoding="UTF-8"?>
<svg id="Layer_1" data-name="Layer 1" xmlns="http://www.w3.org/2000/svg" viewBox="0 0 205.76 163.19">
  <defs>
    <style>
      .cls-1 {
        fill: #0698d9;
      }

      .cls-2 {
        fill: #353536;
      }
    </style>
  </defs>
  <path class="cls-1" d="m149.2,21.38c14.26-3.21,28.53-6.43,42.79-9.63,4.45-1,8.91-1.95,13.76-1.81-3.75,2-7.48,4.03-11.24,6.01-12.21,6.44-24.47,12.79-36.59,19.39-1.57.85-3.47,2.96-3.49,4.5-.2,18.09-9.75,29.79-25.08,37.74-1,.52-1.98,1.09-2.75,1.51,4.7,3.21,9.61,5.96,13.8,9.55,9.85,8.45,13.37,19.28,10.08,31.9-6.05,23.17-24.59,37.84-47.96,41.61-5.22.84-10.6.96-15.91.97-26.49.09-52.98.04-79.46.04-1.82,0-3.63,0-7.15,0,2.91-7.28,4.97-14.01,8.18-20.15,7.73-14.8,19.07-26.82,31.19-38.07,29.24-27.14,62.56-48.46,97.19-67.91,4.3-2.42,8.63-4.79,12.74-7.66-45.9,6.68-88.23,23.4-129.43,45.88.85-3.8,1.55-6.96,2.69-10.62,3.98-2.63,7.36-5.13,11.11-6.81,8.46-3.79,17.1-7.18,26.03-10.77,11.1-3.35,21.83-6.66,32.56-9.98,7.08-2.19,14.16-4.41,21.63-6.65,12.03-3.04,23.67-6.05,35.3-9.05Z"/>
  <path class="cls-2" d="m149.1,21.03c-11.53,3.36-23.17,6.36-35.16,8.93-1.9-1.27-3.42-2.8-4.98-2.83-14.44-.29-28.9-.4-43.34-.29-1.14,0-2.98,1.85-3.26,3.11-1.25,5.66-2.05,11.42-3.02,17.14-8.56,3.55-17.2,6.94-25.66,10.74-3.75,1.68-7.13,4.17-10.99,6.45C26.96,42.81,31.54,21.19,36.01.11,63.09.11,89.72-.27,116.32.38c6.36.15,12.83,3.26,18.88,5.85,6.45,2.76,11.12,7.79,13.89,14.8Z"/>
</svg>