<?xml version="1.0" encoding="UTF-8"?>
<svg id="Layer_1" data-name="Layer 1" xmlns="http://www.w3.org/2000/svg" viewBox="0 0 53.5 65.75">
  <path d="M35.48.09c.95,0,1.62.63,1.36,1.27l-7.32,17.31c-.25.62.42,1.26,1.36,1.26l16.35.09c.94.01,1.62.63,1.36,1.27l-10.9,25.85h14.78c.93,0,1.38.78.73,1.22l-25.73,17.19c-.4.26-1.03.26-1.42,0L.32,48.37c-.68-.44-.21-1.22.71-1.22h15.6s.04-.08.05-.13l7.3-17.31c.25-.62-.42-1.26-1.36-1.26l-16.35-.09c-.94,0-1.61-.63-1.36-1.26L16.05.71C16.23.28,16.8,0,17.43,0l18.05.09Z" fill="#fff"/>
</svg>