<?xml version="1.0" encoding="UTF-8"?>
<svg id="Layer_1" data-name="Layer 1" xmlns="http://www.w3.org/2000/svg" viewBox="0 0 160 160">
  <circle cx="80" cy="80" r="80" fill="#282828"/>
  <path d="M95.92,20.25c1.73,0,2.95,1.16,2.48,2.3l-13.36,31.55c-.47,1.14.78,2.3,2.48,2.3l29.82.16c1.73,0,2.95,1.16,2.48,2.33l-19.87,47.13h26.95c1.71,0,2.51,1.42,1.32,2.22l-46.9,31.35c-.72.47-1.89.47-2.58,0l-46.93-31.32c-1.24-.8-.39-2.22,1.29-2.22h28.45s.08-.16.08-.23l13.31-31.55c.47-1.14-.78-2.3-2.48-2.3l-29.82-.16c-1.73,0-2.95-1.16-2.48-2.3l20.34-48.14c.31-.78,1.37-1.29,2.51-1.29l32.92.18Z" fill="#2e6bc5"/>
</svg>