<?xml version="1.0" encoding="UTF-8" standalone="no"?>
<svg xmlns:dc="http://purl.org/dc/elements/1.1/"
     xmlns:cc="http://creativecommons.org/ns#"
     xmlns:rdf="http://www.w3.org/1999/02/22-rdf-syntax-ns#"
     xmlns:svg="http://www.w3.org/2000/svg"
     xmlns="http://www.w3.org/2000/svg"
     xmlns:xlink="http://www.w3.org/1999/xlink"
     width="128" height="128" version="1.1">
    <title>Clarity Icon</title>
    <desc>This is shape (source) for Clarity vector icon theme for gtk</desc>
    <metadata>
        <rdf:RDF>
            <cc:Work rdf:about="">
                <dc:title>Clarity Icon</dc:title>
                <dc:description>This is shape (source) for Clarity vector icon theme for gtk</dc:description>
                <dc:creator>
                    <cc:Agent>
                        <dc:title>Jakub Jankiewicz</dc:title>
                    </cc:Agent>
                </dc:creator>
                <dc:rights>
                    <cc:Agent>
                        <dc:title>Jakub Jankiewicz</dc:title>
                    </cc:Agent>
                </dc:rights>
                <dc:date>2010</dc:date>
                <dc:format>image/svg+xml</dc:format>
                <dc:type rdf:resource="http://purl.org/dc/dcmitype/StillImage" />
                <cc:license rdf:resource="http://creativecommons.org/licenses/by-sa/3.0/" />
             </cc:Work>
        </rdf:RDF>
    </metadata>
    <path d="m 23.643275,23.206567 c -3.211004,0 -5.779926,2.568921 -5.779926,5.779926 l 0,70.001329 c 0,3.210998 2.568922,5.805608 5.779926,5.805608 l 80.713455,0 c 3.211,0 5.77992,-2.59461 5.77992,-5.805608 l 0,-70.001329 c 0,-3.211005 -2.56892,-5.779926 -5.77992,-5.779926 l -80.713455,0 z m 0.231197,18.72696 80.251058,0 0,57.054295 -80.251057,0 0,-57.054295 z m 28.154661,4.289989 -1.155985,2.466102 -0.05138,0.539459 0.385329,1.746822 -2.311971,0.924789 -0.924788,-1.464248 -0.436705,-0.385329 -2.543168,-0.899099 -0.899099,0.873411 0.924788,2.568856 0.385328,0.411017 1.464248,0.924788 -0.950476,2.337659 -1.721134,-0.385329 -0.565148,0.02569 -2.466102,1.181674 0,1.23305 2.466102,1.181674 0.565148,0 1.721134,-0.35964 0.950476,2.286282 -1.464248,0.976165 -0.385328,0.411017 -0.924788,2.568856 0.899099,0.873411 2.543168,-0.899099 0.436705,-0.385329 0.924788,-1.464248 2.311971,0.924789 -0.385329,1.721133 0.05138,0.565148 1.155985,2.440413 1.233051,0 1.181673,-2.440413 0.02569,-0.565148 -0.35964,-1.721133 2.286282,-0.924789 0.950476,1.464248 0.411017,0.385329 2.568856,0.899099 0.873411,-0.873411 -0.899099,-2.568856 -0.385329,-0.411017 -1.464247,-0.976165 0.950476,-2.286282 1.695445,0.35964 0.565148,0 2.466102,-1.181674 0,-1.23305 -2.466102,-1.181674 -0.565148,-0.02569 -1.695445,0.385329 -0.950476,-2.337659 1.464247,-0.924788 0.385329,-0.411017 0.899099,-2.568856 -0.873411,-0.873411 -2.568856,0.899099 -0.411017,0.385329 -0.950476,1.464248 -2.286282,-0.924789 0.35964,-1.746822 -0.02569,-0.539459 -1.181673,-2.466102 -1.233051,0 z m 0.642214,7.706568 c 2.081677,0 3.750529,1.694541 3.750529,3.776218 0,2.081678 -1.668852,3.75053 -3.750529,3.75053 -2.081678,0 -3.801907,-1.668852 -3.801907,-3.75053 0,-2.081677 1.720229,-3.776218 3.801907,-3.776218 z m 12.895656,7.346928 -1.59269,0.513771 -0.35964,3.236758 0.205508,0.847723 0.8991,1.721133 -2.568856,1.900954 -1.361494,-1.412871 -0.770656,-0.462394 -3.185382,-0.642214 -0.950476,1.361494 1.567002,2.825741 0.667902,0.565148 1.746822,0.873411 -0.950476,3.03125 -1.952331,-0.359639 -0.847722,0.07707 -2.979873,1.361494 0,1.669756 2.979873,1.361494 0.847722,0.07707 1.952331,-0.333952 0.950476,3.03125 -1.746822,0.873411 -0.667902,0.53946 -1.567002,2.877119 0.950476,1.335805 3.185382,-0.642214 0.770656,-0.462394 1.361494,-1.412871 2.568856,1.875265 -0.8991,1.721137 -0.205508,0.87341 0.35964,3.23675 1.59269,0.51377 2.209217,-2.38903 0.333951,-0.82203 0.282574,-1.92665 3.185381,0 0.282575,1.92665 0.308262,0.82203 2.234907,2.38903 1.592691,-0.51377 0.385328,-3.23675 -0.205508,-0.87341 -0.950477,-1.721137 2.594545,-1.875265 1.361493,1.412871 0.744969,0.462394 3.185381,0.642214 1.001854,-1.335805 -1.592691,-2.877119 -0.667902,-0.53946 -1.772511,-0.873411 1.001854,-3.03125 1.926642,0.333952 0.873411,-0.07707 2.954184,-1.361494 0,-1.669756 -2.954184,-1.361494 -0.873411,-0.07707 -1.926642,0.359639 -1.001854,-3.03125 1.772511,-0.873411 0.667902,-0.565148 1.592691,-2.825741 -1.001854,-1.361494 -3.185381,0.642214 -0.744969,0.462394 -1.361493,1.412871 -2.594545,-1.900954 0.950477,-1.721133 0.205508,-0.847723 -0.385328,-3.236758 -1.592691,-0.513771 -2.234907,2.389036 -0.308262,0.796345 -0.282575,1.978019 -3.185381,0 -0.282574,-1.978019 -0.333951,-0.796345 -2.209217,-2.389036 z m 4.418433,10.018538 c 3.45971,0 6.268011,2.808299 6.268011,6.268008 0,3.459712 -2.808301,6.268009 -6.268011,6.268009 -3.45971,0 -6.268009,-2.808297 -6.268009,-6.268009 0,-3.459709 2.808299,-6.268008 6.268009,-6.268008 z"/>
</svg>