<?xml version="1.0" encoding="UTF-8"?>
<svg id="Capa_1" data-name="Capa 1" xmlns="http://www.w3.org/2000/svg" viewBox="0 0 620.69 800">
  <path d="m0,565.52v206.9c0,13.92,16.83,27.59,33.97,27.59h552.74c17.14,0,33.97-13.67,33.97-27.59v-206.9H0Zm223.68,57.49h-63.93v43.75h58.08v15.46h-58.08v45.45h63.93v17.16h-86.94v-138.98h86.94v17.16Zm129.93,121.82h-26.21l-22.07-52.43h-1.89l-23.77,52.43h-26.21l35.27-67.52-37.53-71.48h25.83l24.51,56.58h1.89l26.59-56.58h25.83l-37.53,71.48,35.27,67.52Zm120.87-121.82h-63.93v43.75h58.08v15.46h-58.08v45.45h63.93v17.16h-86.94v-138.98h86.94v17.16Z"/>
  <path d="m620.69,537.93V192.8c0-10.57-1.27-18.39-7.59-24.72L452.59,7.59c-4.81-4.81-11.49-7.59-18.32-7.59H33.97C17.61,0,0,12.63,0,40.36v497.57h620.69ZM427.59,46.77c0-6.32,7.63-9.48,12.1-5.01l139.24,139.24c4.47,4.47,1.31,12.1-5.01,12.1h-146.33V46.77Z"/>
</svg>